<svg width="701" height="140" viewBox="0 0 701 140" fill="none"
    xmlns="http://www.w3.org/2000/svg">
    <path d="M64.0924 140C82.5375 140 95.3933 134.355 104.523 125.699C113.466 117.231 118.496 105.753 119.242 93.8978H92.7849C91.108 108.011 79.9291 117.608 64.0924 117.608C41.7346 117.608 27.5746 97.8495 27.5746 70.3763C27.5746 43.6559 39.3125 22.957 63.906 22.957C79.5565 22.957 89.6175 31.8011 92.0396 45.3495H118.869C116.074 19.7581 96.6975 0 63.906 0C24.5936 0 0 30.4839 0 70.3763C0 110.833 26.643 140 64.0924 140Z" fill="#f5f7fa" />
    <path d="M177.274 140C206.898 140 227.207 117.796 227.207 89.0054C227.207 60.2151 206.898 38.0108 177.274 38.0108C147.65 38.0108 127.342 60.2151 127.342 89.0054C127.342 117.796 147.65 140 177.274 140ZM177.274 120.43C161.624 120.43 153.053 107.823 153.053 89.0054C153.053 70.1882 161.624 57.3925 177.274 57.3925C192.738 57.3925 201.495 70.1882 201.495 89.0054C201.495 107.823 192.738 120.43 177.274 120.43Z" fill="#f5f7fa" />
    <path d="M263.765 40.6452H238.985V137.177H264.324V82.4193C264.324 69.2473 272.522 60.2151 283.701 60.2151C294.321 60.2151 300.283 67.5538 300.283 77.9032V137.177H325.622V74.1398C325.622 53.0645 312.393 38.0108 292.644 38.0108C279.602 38.0108 270.845 43.4677 264.324 53.8172H263.765V40.6452Z" fill="#f5f7fa" />
    <path d="M366.02 40.6452H341.24V137.177H366.579V82.4193C366.579 69.2473 374.777 60.2151 385.956 60.2151C396.576 60.2151 402.538 67.5538 402.538 77.9032V137.177H427.877V74.1398C427.877 53.0645 414.648 38.0108 394.899 38.0108C381.857 38.0108 373.1 43.4677 366.579 53.8172H366.02V40.6452Z" fill="#f5f7fa" />
    <path d="M436.788 137.177H467.716L495.291 88.0645H495.663L522.865 137.177H554.353L510.196 66.6129L549.322 2.63441H519.884L495.291 45.1613H494.918L470.325 2.63441H439.955L479.827 66.8011L436.788 137.177Z" fill="#f5f7fa" />
    <path d="M564.127 137.177H589.466V44.2349H564.127V137.177Z" fill="#f5f7fa" />
    <path d="M651.068 140C680.692 140 701 117.796 701 89.0054C701 60.2151 680.692 38.0108 651.068 38.0108C621.443 38.0108 601.135 60.2151 601.135 89.0054C601.135 117.796 621.443 140 651.068 140ZM651.068 120.43C635.417 120.43 626.847 107.823 626.847 89.0054C626.847 70.1882 635.417 57.3925 651.068 57.3925C666.532 57.3925 675.289 70.1882 675.289 89.0054C675.289 107.823 666.532 120.43 651.068 120.43Z" fill="#f5f7fa" />
    <path fill-rule="evenodd" clip-rule="evenodd" d="M612.104 45.803C610.865 47.3524 608.604 47.6036 607.055 46.3641L594.702 36.482C593.153 35.2425 592.901 32.9816 594.141 31.4322C595.381 29.8829 597.641 29.6316 599.191 30.8712L611.543 40.7532C613.093 41.9927 613.344 44.2536 612.104 45.803Z" fill="#D63B31" />
    <path fill-rule="evenodd" clip-rule="evenodd" d="M580.416 28.1886C583.322 25.9235 583.842 21.7312 581.577 18.8248C579.312 15.9184 575.119 15.3985 572.213 17.6636C569.307 19.9287 568.787 24.121 571.052 27.0274C573.317 29.9337 577.509 30.4536 580.416 28.1886ZM584.833 33.8561C590.869 29.1516 591.949 20.4444 587.244 14.4079C582.54 8.37145 573.833 7.29165 567.796 11.9961C561.76 16.7006 560.68 25.4078 565.384 31.4443C570.089 37.4807 578.796 38.5605 584.833 33.8561Z" fill="#f5f7fa" />
</svg>