<svg xmlns="http://www.w3.org/2000/svg" xml:space="preserve" aria-label="Connxio logo" viewBox="121.75 119.79 830.7 125.61"><style>.st0{fill:#00ae79;stroke:#00ae79}</style><path d="M330.63 182.6c0-36.78 20.299-62.804 57.6-62.804 24.809 0 45.802 12.665 52.568 37.994l-17.176 3.297c-3.643-14.573-15.441-27.759-35.045-27.759-13.879 0-24.983 4.511-31.576 13.706-5.899 8.327-8.675 19.951-8.675 35.565 0 15.788 2.776 27.238 8.675 35.739 6.246 8.849 17.349 13.533 31.229 13.533 19.778 0 30.882-11.798 35.739-25.677l17.87 4.684c-9.716 22.207-28.106 34.525-53.609 34.525-36.781.002-57.6-22.379-57.6-62.803zM451.56 199.95c0-26.371 16.482-45.455 43.373-45.455 26.544 0 43.2 19.258 43.2 45.455 0 27.238-17.176 45.455-43.2 45.455-27.064 0-43.373-17.176-43.373-45.455zm62.631 25.85c5.031-5.726 7.113-14.573 7.113-25.851s-2.082-20.299-7.287-26.024c-4.164-4.511-10.236-7.112-19.084-7.112-8.501 0-14.747 2.255-18.911 6.593-5.552 5.725-7.634 14.92-7.634 26.544s2.082 20.819 7.634 26.544c4.164 4.338 10.236 6.593 18.911 6.593 8.849 0 15.094-2.603 19.258-7.287zM630.78 191.79v51.527h-16.135v-50.66c0-7.98.173-15.094-5.205-20.125-4.858-4.857-10.583-5.031-15.441-5.031-7.634 0-22.554 3.123-22.554 27.933v47.884h-15.614v-86.746h15.614v13.186c4.337-9.716 12.838-15.268 26.718-15.268 11.451 0 19.605 3.123 25.85 9.716 6.594 7.112 6.767 18.388 6.767 27.584zM727.77 191.79v51.527h-16.135v-50.66c0-7.98.174-15.094-5.205-20.125-4.858-4.857-10.583-5.031-15.441-5.031-7.634 0-22.554 3.123-22.554 27.933v47.884H652.82v-86.746h15.615v13.186c4.337-9.716 12.838-15.268 26.718-15.268 11.45 0 19.604 3.123 25.85 9.716 6.594 7.112 6.767 18.388 6.767 27.584zM787.8 198.04l32.617 45.281h-16.829l-14.4-20.472c-3.123-4.512-7.113-11.104-9.369-14.747-2.082 3.296-6.419 10.235-9.542 14.747l-14.4 20.472h-16.829l32.617-45.281-30.014-41.465h16.829l14.053 19.604c2.949 4.164 5.552 8.501 7.287 11.277 1.908-2.949 4.511-7.113 7.46-11.277l13.706-19.604h17.002L787.8 198.04zM832.56 140.27v-18.39h15.615v18.39H832.56zm0 103.06v-86.746h15.615v86.746H832.56zM865.87 199.95c0-26.371 16.482-45.455 43.373-45.455 26.544 0 43.199 19.258 43.199 45.455 0 27.238-17.176 45.455-43.199 45.455-27.065 0-43.373-17.176-43.373-45.455zm62.63 25.85c5.031-5.726 7.113-14.573 7.113-25.851s-2.082-20.299-7.287-26.024c-4.164-4.511-10.236-7.112-19.084-7.112-8.501 0-14.747 2.255-18.911 6.593-5.552 5.725-7.634 14.92-7.634 26.544s2.082 20.819 7.634 26.544c4.164 4.338 10.236 6.593 18.911 6.593 8.849 0 15.095-2.603 19.258-7.287zM244.38 126.41c0-4.113-4.441-6.682-7.991-4.622l-53.255 26.366c27.893 13.809 56.615 28.024 58.134 28.775 4.775 2.362 2.706 5.546.899 5.518l-95.675.092-22.456-.016c-1.807-.028-4.049 3.037.899 5.518 2.982 1.495 111.39 55.141 111.39 55.141 3.846 1.689 7.991-.509 7.991-4.622l.064-112.15z" class="st0"/><path d="M121.75 238.56c0 4.113 4.441 6.682 7.991 4.622l53.255-26.366a398380.347 398380.347 0 0 0-58.134-28.775c-4.775-2.362-2.706-5.546-.899-5.518l95.675-.092 22.456.016c1.807.028 4.049-3.037-.899-5.518-2.982-1.495-111.39-55.141-111.39-55.141-3.846-1.689-7.991.509-7.991 4.622l-.064 112.15z" style="fill:#1c4e50;stroke:#1c4e50"/></svg>